<svg width="615" height="350" viewBox="0 0 615 350" xmlns="http://www.w3.org/2000/svg" class="dek-svg-cr">
  <g>
   <path d="m152.37,217.740002l1.54,0.75l3.63,-2.53l1.69,2.29l2.8,-2.01l0.76,1.62l1.68,-0.18l-0.68,0.99l3.67,0.84l1.6,-2.36l2.32,0.93l0.58,-1.77l1.4,0.76l1.52,-2.87l-0.47,-1.6l1.27,0.32l1.41,-1.6l3.08,0.44l-0.07,3.89l2.62,0.06l0.46,-1.03l1.68,1.15l-0.35,-1.48l2.55,1.19l4.22,-1.08l1.22,0.78l1.56,-4.28l4.31,-0.49l2.25,3.02l0.61,-0.71l2.57,1.47l-0.24,1.72l0.84,-0.83l2.32,0.85l1.85,-2.32l2.43,0.86l-0.67,-2.99l1.85,2.32l1.49,-1.01l1.92,2.46l1.15,-1.99l7.5,1.99l2.62,-1.77l-0.65,3.56l4.69,-0.17l1.14,2.22l0.29,-2.16l2.95,-2.68l4.8,-1.43l-1.27,-2.63l0.7,-4.13l1.52,0.28l-0.33,-1.39l1.8,-0.64l0.44,-1.65l1.08,2.27l0,0l0.7,0l0,0l2.38,0.41l2.89,3.72l0.94,-1.76l1.92,0.21l1.28,4.65l2.35,1.27l0,0l0.89,-0.27l0,0l0.48,-0.57l0,0l0.92,3.59l-3.29,-0.03l-0.51,1.33l2.96,4.36l-1.33,1.25l0.71,2.48l-2.34,3.97l1.26,0.47l-2.37,6.67l4.08,2.89l-2.64,3.15l6.77,8.02l1.14,0.24l3.47,-3.19l2.94,3.44l3.79,0.3l-0.34,2.83l-2.3,-0.56l2.15,1.68l2.21,-0.91l1.46,3.59l0,0l0.87,0l0,0l1.49,0.7l2.26,-2.77l5.92,2.53l-0.36,1.74l1.29,-1.36l6.8,-0.19l0.8,3.24l-1.25,3.68l7.9,6.7l1.55,-2.06l2.39,1.87l3.17,0.03l1.28,-1.64l1.68,0.81l0.76,-1.43l2.09,0.93l0.5,1.74l-1.5,0.12l3.26,1.45l-0.81,0.77l1.7,1.64l-1.04,0.38l0.57,1.3l-3.93,-0.25l0.11,2.13l-1.26,0.44l0.72,2.07l-2.05,0.75l0.75,1.65l-4.18,3.85l0.6,1.13l1.28,-1.25l1.4,0.58l0.04,2.47l5.01,1.4l-0.58,1.36l1.14,1.02l0,0l-1.7,0.89l-0.69,1.86l0.95,0.13l-1.79,0.55l-0.86,2.14l0,0l-2.35,-0.7l-1.22,-3.17l-2.96,-2.13l-1.12,0.91l-2.78,-0.86l-5.29,-4.16l-6.28,0.2l-1.67,-2.01l-1.56,5.67l-3.34,-0.9l-3.18,2.33l-2.61,0.1l0.79,-2.61l-1.73,-2.63l0.53,-1.73l-8.02,-0.85l-0.64,-2.24l-5.83,0.07l0.14,3.22l-1.94,3.07l1.41,8.92l-0.7,4.05l-1.16,0.2l1.19,4.24l-1.12,0.05l-1.69,6.06l2.42,2.58l-0.36,1.41l-1.86,1.44l-6.11,-1.64l-0.67,-1.4l-6.43,0.19l-0.12,6.18l-7.34,6.38l-1.33,5l0.79,6.74l-1.78,2.57l-3.32,0.07l-1.48,-3.82l-2.18,0.45l-1.16,-3.02l-4.52,3.32l-1.48,-1.43l-3.83,-0.3l-2.96,-4.24l-2.35,0.71l1.05,2.47l-2.28,4.95l-3.9,-0.64l0.18,2.86l-2.84,-0.33l-2.15,3.08l-0.85,-1.62l-4.77,-2.37l-2.69,0.53l-4.56,-2.13l-5.41,-0.65l-1.42,1.16l-1.82,-0.41l0.05,-1.04l-2.66,0.64l0.15,-1.58l-2.43,-0.86l0.49,-2.1l-1.6,0.26l-1.72,-1.73l1.3,-1.88l2.54,0.01l0.61,-2.91l-2.3,-0.34l-2.8,-4.33l-4.24,-0.69l-7.45,-7.37l-5.56,-0.93l0.18,-3.22l-1.98,-4.35l-2.6,-0.77l-2.33,-6.95l-2,1.14l-3.99,-0.31l-4.43,-8.05l0.65,-1.38l-1.92,1.51l-2.54,-4.47l-2.68,0.35l0,0l-1.28,-2.47l0.68,-4.62l2.51,-4.29l1.47,0.8l1.45,-1.54l-0.54,-4.51l-1.64,-2.28l1.57,-0.48l-0.76,-2.52l0.96,-1.97l-1.01,-0.71l3.77,1.4l2.52,-3.21l3.25,-0.55l-0.85,-0.33l0.65,-2.97l2.47,-1.14l-2.45,-3.4l0,0l0,-0.58l0,0l0.59,-1.93l1,0.3l-0.4,-1.16l1.8,0.21l0.32,-2.03l-1.97,-0.04l-0.64,-2.96l2.44,0.2l0.74,-1.98l-1.38,-0.89l0.23,-1.66l4.51,-1.95l-0.28,-2.32l1.92,-3.18l-2.86,-4.77l0.44,-3.21l2.14,-1.67l-2.02,-2.5l0.42,-4.44l-1.87,-0.3l0.33,-1.05l0,0l0,-0.5l0,0l1.19,-2.22z" class="dek-svg-cr__land" id="CZ-JC" data-id-land="CZ031"/>
   <path d="m503.43,309.010002l-4.38,2.01l-0.72,1.92l-4.05,1.29l-2.77,0.16l-5.74,-4.19l-5.07,4.31l-2.94,0.08l-3.91,-4.23l-1.39,0.38l-2.45,-2.44l-7.53,-2.26l-3.68,4.14l-3.95,2.04l-1.99,6.08l-4.03,2.75l-3.96,7.35l0.88,2.05l-3.62,3.62l0.47,2.87l-3.12,4.27l-2.03,-0.85l0.79,-2.71l-2.28,-10.27l-2.03,-0.75l-1.12,1.58l-3.04,-0.72l-3.01,1.52l-3.86,-1.39l-0.95,-2.23l-2,-0.75l-3.88,1.34l-1.65,-7.23l-6.32,-0.15l-4.82,-4.35l-1.92,2.05l-4.54,-1.03l-1.8,0.89l-1.29,4.64l-5.02,5.03l-1.76,0.19l-1.66,-2.61l-0.9,2.08l-4.95,-1.35l-15.74,-0.52l-9.9,-4.58l-3.89,-3.63l0.61,-2.46l-1.36,-0.62l-0.85,1.14l-1.27,-2.67l-2.3,0.58l-0.06,-1.11l1.12,0.55l-0.66,-1.3l-1.09,0.89l-0.95,-2.49l-0.9,1.04l-2.06,-0.97l0.86,-1.08l-1.14,-1.36l-5.47,0.37l-2.42,3.18l-3.86,-1.26l-1.56,0.73l-6.74,-5.59l-3.55,0l-3.38,-1.63l0,0l0.86,-2.14l1.79,-0.55l-0.95,-0.12l0.69,-1.87l1.71,-0.89l0,0l0.02,-0.97l2.36,-0.4l1.09,2.32l2.19,0.51l1.15,-3.53l4.05,-0.55l2.09,2.88l2.61,-4.64l3.21,-0.59l2.17,-3.56l5.14,0.23l0.89,-4.1l2.93,1.32l1.48,-1.32l-0.2,-1.66l2.61,-0.73l0.73,2.43l2.48,1.62l2.34,-0.61l0.98,-2.3l4.82,2.31l0.23,-1.16l5.32,-0.96l-1.63,-1.68l0.88,-1.11l6.38,-0.58l1.25,-3.66l2.18,-0.34l1.76,-2.16l0.24,-1.83l-1.55,-0.68l0.63,-1.45l-2.21,1.05l0.3,-2.65l-1.17,-1.13l0.6,-1.37l3.72,-1.48l0.04,-2.11l-3.28,-1.63l1.37,-5.55l3.18,-0.69l-2.69,-2.54l0.11,-2.13l1.93,-0.87l0.8,-3.76l6.12,-3l0,0l0.8,0l0,0l1.88,-1.77l-1.36,-3.59l1.15,-4.06l-1.32,-0.28l-0.43,-3.71l2.23,-4.54l-3.23,-3.25l2.89,0.89l2.96,-4.25l-0.81,-2.19l-1.98,0.06l-1.34,-1.76l1.69,-1.61l-0.05,-2.59l0,0l1.35,1.2l0.98,-3.06l2.28,-0.63l0.34,1.68l3.87,-1.82l1.56,1.4l3.17,0.04l1.36,-5.65l4.5,1.38l1.63,-1.53l2.48,1.73l1.32,-1.1l3.12,0.54l6.93,3.71l2.54,-0.36l0,0l-1.43,1.15l0.61,2.36l-4.5,-1.1l-0.81,5.42l8.72,1.6l-2.02,0.07l-0.52,2.57l-1.56,0.42l0.83,7.3l1.92,0.79l0.9,2.09l-2.54,1.07l-0.33,2.25l5.7,4.27l2.93,-2.92l1.77,-4.35l-2.78,-6.38l2.03,-2.01l3.28,0.74l4.08,9.03l1.27,0.5l0.06,3.71l3.73,1.05l0.94,-2.52l0.64,1.72l-2.66,2.08l0.24,1.94l9.72,5.26l1.76,6.94l0,0l-2.66,4.08l1.62,1.97l-0.92,2.22l2.63,3.34l-1.83,2.1l3.54,0.23l1.09,-1.37l0.46,1.27l-1.38,5l-3.24,0.68l-0.81,4.09l-2.48,0.11l-0.34,3.47l3.09,0.5l6.31,-2.55l1.58,3.76l-0.89,4.47l2.58,-0.87l0.09,1.06l1.37,-0.41l0.84,2.74l5.36,-0.15l2.24,1.29l-0.58,3.82l2.08,0.51l1.6,-1.08l3.49,4.38l2.97,-1.66l1.51,0.75l1.38,-1.51l0.95,2.06l3.69,0.88l-0.9,3.4l5.65,1.67l4.22,7.86z" class="dek-svg-cr__land" id="CZ-JM" data-id-land="CZ064"/>
   <path d="m73.37,89.110002l5.08,3.73l0,0l2.42,2.04l4.14,-0.62l2.4,1.74l1.52,-1.23l1.51,1.47l1.6,-0.26l-0.03,3.31l1.59,1.67l1.66,-1.75l4.48,1.38l2.34,-1.58l2.48,3.59l-0.92,2.43l0,0l-0.22,0l0,0l0.8,2.99l-1.62,3.2l1.68,0.38l0.2,3.26l-1.34,0.85l3.05,2.21l-1.97,2.71l2.53,0.34l1.26,5.26l1.08,0.04l-0.33,1.55l-1.62,-0.04l1.54,2.81l-4.14,-0.64l0,0l-0.05,0.11l0,0l-0.62,1.04l1.44,1.15l2.56,-0.3l2.54,3.99l0,0l-1.79,0.04l-0.37,3.09l1.89,0.35l-1.55,3.15l-4.4,0.42l0.06,7.31l-2.85,-0.76l-1.44,-2.06l-0.52,0.96l-1.81,-2.07l-4.74,0.09l-0.94,-1.48l-7.14,6.75l-1.19,-0.46l-0.49,1.61l-3.62,0.68l0,0l0,1.09l0,0l0.55,3.19l-2.74,2.64l-1.05,-0.38l0.32,0.87l-2.84,-1.86l-3.96,1.45l-3.86,-2.2l-1.96,-0.11l-1.35,1.58l-1.07,-0.67l0,0l0.03,0.18l0,0l-1.69,-0.18l-1.17,1.51l-2.42,-0.44l0.84,1.98l-3.58,0.44l0.71,2.41l-3.11,-3.49l-2.28,0.49l-2.38,2.7l-3.93,-1.66l0,0l-0.56,-2.36l-6.65,-2.98l2.5,-3.97l-0.83,-1.29l-2.67,-1.95l-2.56,1.48l-0.09,-2.5l-2.61,-0.35l-0.14,-1.53l-2.97,-0.21l-2.71,-3.12l-0.91,0.99l-0.95,-2.85l-5.1,-0.78l1.26,-2.54l-2.44,-2.95l-1.5,0.44l-2.88,-2.11l-0.49,-4.63l1.95,-3.71l-2.42,-3.64l0.73,-0.63l-1.28,-0.07l-0.77,-2.02l-1.32,0.38l-0.87,-3.49l-2.08,0.39l-3.21,-2.32l0.56,-1.84l3.82,-1.87l-1.9,-3.04l0.56,-1.29l-2.2,-1.64l7.54,-0.58l1.38,2.29l0.1,4.74l4.89,0.25l1.01,2.87l-1.88,-1.15l-0.52,1.79l4.89,3.54l-1.7,3.41l1.36,2.8l4.25,0.57l-1.22,-1.23l1.38,-1.52l-1.38,-2.08l1.06,-1.67l-0.39,-3.22l2.64,-0.05l-0.65,-2.87l1.67,-3.21l2.53,-1.1l0.02,-4.1l2.88,-0.1l0.95,-2.69l2.45,-1.88l1.88,0.77l-0.23,-3.03l2.28,-3.68l14.5,-2.82l3.05,2.77l2.6,-4.98l5.41,-2.4l1.36,2.55l0.82,-4.03l6.6,4.05z" class="dek-svg-cr__land" id="CZ-KA" data-id-land="CZ041"/>
   <path d="m314.64,40.020002l3.96,0.09l6.82,3.03l2.34,2.57l6.6,-0.79l3.3,-1.81l3.32,6.64l0.83,4.86l2.1,0.49l6.64,-2.93l2.93,1.04l1.02,5.64l1.83,2.06l-3.19,2.37l3.3,2.06l1.79,-2.13l1.36,0.5l0.85,-4.1l3.18,-3.4l6.08,2.51l1.55,2.54l2.83,-0.96l1.45,-5.27l3.86,0.44l0.72,1.11l5.2,-0.24l7.15,7.84l2.06,4l-3.59,1.45l0.56,2.92l-2.07,0.86l1.17,1.97l-3.62,3.78l-1.43,0.83l-2.89,-1.55l-1.62,3.83l-3.29,-0.03l-0.31,1.78l-2.98,1.12l0.82,2.3l-1.62,-1.22l-1.56,2.69l1.38,3.1l2.41,-0.45l1.4,1.28l-0.53,1.21l1.46,0.56l1.47,3.59l2.28,-2.23l5.09,0.49l0.12,4.33l1.87,2.8l1.47,1.35l3.3,-0.24l4.77,7.96l6.33,6.09l-0.01,7.13l2.49,2.38l-0.33,1.48l0,0l-1.11,0.64l-7.35,-3.81l-1.57,4.05l-4.29,2.53l-2.73,0.14l-1.53,2.28l-3.12,1.13l1.09,2.26l-3.98,2.28l1.95,2.94l-4.57,-1.48l-3.05,1.18l-0.09,-1.8l-0.65,1.3l-3.94,1.01l-2.55,-3.2l-2.69,-0.11l-2.46,-2.99l-3.25,-0.46l-1,-3.55l-4.81,0.05l0.01,-4.65l-1.74,-0.12l-0.01,-1.64l-4.62,-0.32l-2.04,-1.58l-0.01,0.95l-2.67,0.28l-0.16,2.15l-2.91,-0.05l-1.67,2.33l-2.76,-1.24l0.5,-2.85l-3.21,-2.1l-3.07,1.94l-0.08,2.6l-1.31,1.13l-1.86,-0.65l-1.49,1.93l-3.68,-2.12l-0.21,1.09l-4.46,-0.9l0.48,0.88l-1.43,-0.07l-1.64,-2.37l-1.43,2.21l-1.31,-0.91l-1.38,0.76l-0.05,2.58l-2.97,0.41l0,0l0,0.63l0,0l-3.2,1.92l-1.01,-1.31l0,0l0.3,-2.55l-2.73,-2.25l-1.25,0.76l-1.76,-1.52l-3.07,-0.05l2.33,-1.42l-1.62,-1.55l3.63,-4.04l-0.46,-3.13l-1.75,-1.4l-0.31,-2.8l1.44,-1.06l-0.6,-4.18l-2.43,-2.24l-4.01,2.63l-3.72,-1.75l-2.55,1.1l-2.74,-1.32l0.85,-3.31l-3.13,-1.33l0.64,-1.58l-5.23,-0.81l-0.77,-1.65l0.92,-0.91l-2.66,-1.96l1.28,-1.74l2.23,0.25l-0.48,-2.23l1.85,-0.68l-0.19,-4.25l-2.18,-1.75l1.25,-3.34l-2.82,-4.03l2.8,-2.82l0,0l7.07,4.01l1.71,-0.42l-0.36,-1.35l2.56,-2.74l4.18,2.14l2.2,-0.25l2.95,2.51l0.98,-1.83l1.13,4.01l4.5,-1.25l0.92,-1.54l-1.42,-3.11l3.73,-1.61l-0.06,-1.91l1.66,1.05l-0.18,2.06l0.46,-1.01l3.36,2.54l2.39,-1.77l2.83,2.31l-0.39,-1.53l3.88,-0.3l-1.99,-3.88l-1.73,-0.88l1,-0.4l-1.49,-1.11l0.71,-1.05l-2.04,-0.97l2.79,-4.74l-3.33,-3.25l1.53,-2.21l-2.21,-8.45l1.46,-3.35l-3.2,-3.19l-0.41,-3.05l0,0l2.42,0.41z" class="dek-svg-cr__land" id="CZ-KR" data-id-land="CZ052"/>
   <path d="m265.8,4.700002l1.75,1.68l1.45,-0.03l0.5,-1.46l3.95,1.69l-0.01,3.08l3.35,-0.31l0.04,-2.75l2.42,-1.29l0.19,4.8l1.65,0.91l4.63,-2.62l-0.17,1.89l3.18,0.82l0.05,2.55l1.57,1.14l-2.16,3.12l0.83,6l2.89,4.12l4.07,1.53l1.21,2.17l0.48,8.14l1.98,0.34l3.84,-4.62l8.73,4.01l0,0l0.41,3.05l3.2,3.19l-1.46,3.35l2.21,8.45l-1.53,2.21l3.33,3.25l-2.79,4.74l2.04,0.97l-0.71,1.05l1.49,1.11l-1,0.4l1.73,0.88l1.99,3.88l-3.88,0.3l0.39,1.53l-2.83,-2.31l-2.39,1.77l-3.36,-2.54l-0.46,1.01l0.18,-2.06l-1.66,-1.05l0.06,1.91l-3.73,1.61l1.42,3.11l-0.92,1.54l-4.5,1.25l-1.13,-4.01l-0.98,1.83l-2.95,-2.51l-2.2,0.25l-4.18,-2.14l-2.56,2.74l0.36,1.35l-1.71,0.42l-7.07,-4.01l0,0l-3.99,-1.36l-0.55,-3.12l-2.7,-2.35l-2.31,0.86l-3.07,-5.62l-2.71,0.3l-0.69,1.51l-3.93,-3.85l-1.49,0.27l0.68,1.38l-1.73,0.74l0.58,2.03l-5.31,2.4l0.3,1.97l-1.84,3.12l-1.64,1.25l-0.92,-0.78l-1.12,2.99l-5.48,-1.24l-0.66,2.79l-2.38,0.98l-0.14,1.63l-3.21,-0.63l-0.8,0.91l-1.25,-1.08l-1.87,1.99l-1.96,-0.2l-1.12,-5.23l-2.74,2.11l-3.3,-1.91l-0.88,2.43l-1.55,-1.84l0,0l-1.12,-3l-2.74,-0.42l-3.16,-8.3l-2.35,-1.7l-1.82,-3.98l0.2,-4.03l-1.75,-0.15l0.57,-2.55l2.66,-2.19l-0.05,-4.14l1.38,-0.53l0,0l0.79,-0.29l0,0l1.01,-1.93l0.22,0.98l1.32,-0.46l-1.16,-0.95l0.95,-3.34l2.69,-2.05l-0.86,-0.78l0.88,-2.87l-1.25,-0.77l2.87,-0.7l4.37,2.84l2.55,-0.2l1.48,-5.73l3.14,-0.45l1.49,-2.47l0,0l6.28,2.83l1.66,-0.43l0.98,2.62l2.31,-0.87l2.28,1.42l2.67,-0.4l3.03,-7.32l1.71,0.52l1.86,-1.19l2.29,1.49l0.32,-1.19l5.31,1.96l3.87,-0.66l-0.7,-3.58l1.11,-1.93l-1.53,-2.51l2.22,-2.29l0.71,-4.02l-1.34,-2.63l-1.7,1.06l-1.79,-1.77l1.51,-2.93l3.18,-1.9z" class="dek-svg-cr__land" id="CZ-LI" data-id-land="CZ051"/>
   <path d="m511.5,107.500002l1.3,0.28l-2.48,5.91l3.59,2.96l-0.58,4.17l-3.56,0.1l-1.14,2.96l-9.4,2.07l-0.87,1.46l4.6,4.52l0.58,2.32l2.4,1.06l0.59,-1.83l1.28,0l2.98,2.67l3.67,6.94l0.6,4.04l4.58,1.24l-0.12,2.31l3.87,3.04l4.57,-0.75l3.03,-3.76l2.64,-0.04l1.98,-1.86l0.3,1.11l3.37,0.77l-0.06,-4.39l-1.78,-0.36l-1.33,1.22l-0.52,-1.17l0.06,-2.05l2.59,-1.78l5.03,3.1l-0.33,1.53l1.54,1.35l-0.81,1.22l2.01,2.79l1.56,-0.46l1.89,2.17l1.61,-1.06l-0.36,-1.19l3.5,0.05l0.74,3.66l5.66,1.04l0.41,4.13l3.36,2.8l1.02,-2.17l0.93,0.72l1.06,-1.26l-1.69,-1.99l3.21,1.71l5.5,-0.23l0.26,1.38l5.08,3.38l3.97,0.4l1.26,-1.03l-0.64,-2.42l2.97,0.63l0.6,2.3l-1.23,3.46l3.56,2.62l-1.96,1.29l-1.16,3.41l5.28,11.26l-0.32,3.43l3.9,2.69l3.66,-0.18l0.83,2.98l2.14,0.99l3.66,-1.28l2.53,1.62l-0.36,3.09l1.77,7.49l1.17,0.33l-0.05,4.74l1.87,1.55l-1.59,4.07l-5.14,1.86l-2.52,2.43l-6.9,-2.52l-5.41,1.63l-1.61,-0.25l-0.52,-1.68l-2.76,0.32l-2.76,2.26l0.95,3.43l-4.91,4.28l-1.42,3.75l-3.42,2.35l-2.99,-0.55l0,0l-3.58,-1.28l0.11,-3.7l-5.36,-4.49l-0.84,-3.64l-2.65,-0.26l-1.53,1.33l-4.58,-0.94l-3.35,-3.78l-2.6,1.08l-0.81,-1.57l-11.7,2.34l-2.21,-4.74l-5.23,-0.1l0,0l-0.98,-3.61l-2.04,-0.14l-1.67,2.82l-0.85,-0.86l-1.06,-1.72l1.88,-2.41l-4.42,-5.73l-3.29,-1.39l-0.41,-2.81l-2.56,-3.37l-2.15,1.54l-2.66,-1.59l-0.92,-3.93l1.32,-4.21l0,0l-0.22,0l0,0l-0.65,0.87l-3.16,-2.58l0,0l-0.72,0.04l0,0l-0.95,-0.67l-3.43,2.57l-5.48,-3.81l-1.35,2.89l-2.29,-0.55l-1.05,-2.02l-4.89,0.39l-5.17,-7.02l-1.28,-0.86l-1.72,0.87l0,0l-0.46,0l0,0l-0.87,1.14l-0.17,-1.15l-6.43,-2.76l-3.16,1.09l0.78,-5.74l-3.49,2l-3.47,-4.67l0.21,-1.54l0,0l0.45,0.04l0,0l1.87,-3.04l-1.22,-1.44l1.92,-1.6l0,0l0.4,0l0,0l1.13,-3.61l-4.08,-3.49l1.51,-0.87l-0.03,-3.44l5.8,-6.87l-1.17,-5.76l2.61,-2.63l-0.8,-2.98l3.86,-4.15l1.71,0.01l0.64,-2.09l2.7,0.43l3.47,-5.34l3.55,1.85l1.2,-6.34l0,0l2.18,-0.37l0.18,-1.85l3.39,-0.72l4.61,0.75l4.12,-1.28l2.1,1.76l6.6,-4.85l-0.02,-3.84l2.7,1.01l1.81,2.8z" class="dek-svg-cr__land" id="CZ-MO" data-id-land="CZ080"/>
   <path d="m437.29,87.210002l5.19,3.68l2.11,-1.32l4.93,2.95l5.2,0.25l0.08,1.64l2.94,1.76l5.46,-0.68l-0.26,3.01l4.32,4.52l3.97,2.06l5.22,-1.44l-1,2.09l1.36,0.68l-1.22,3.49l0.91,2.65l1.25,-0.06l0.18,-2.31l2.25,-0.13l2.81,0.79l0.84,3.25l0,0l-1.2,6.34l-3.55,-1.85l-3.47,5.34l-2.7,-0.43l-0.64,2.09l-1.71,-0.01l-3.86,4.15l0.8,2.98l-2.61,2.63l1.17,5.76l-5.8,6.87l0.03,3.44l-1.51,0.87l4.08,3.49l-1.13,3.61l0,0l-0.4,0l0,0l-1.92,1.6l1.22,1.44l-1.87,3.04l0,0l-0.45,-0.04l0,0l-0.21,1.54l3.47,4.67l3.49,-2l-0.78,5.74l3.16,-1.09l6.43,2.76l0.17,1.15l0.87,-1.14l0,0l0.46,0l0,0l1.72,-0.87l1.28,0.86l5.17,7.02l4.89,-0.39l1.05,2.02l2.29,0.55l1.35,-2.89l5.48,3.81l3.43,-2.57l0.95,0.67l0,0l0.72,-0.04l0,0l3.16,2.58l0.65,-0.87l0,0l0.22,0l0,0l-1.32,4.21l0.92,3.93l2.66,1.59l2.15,-1.54l2.56,3.37l0.41,2.81l3.29,1.39l4.42,5.73l-1.88,2.41l1.06,1.72l0.85,0.86l1.67,-2.82l2.04,0.14l0.98,3.61l0,0l-1.35,3.78l-5.24,-1.61l-0.31,2.61l-4.68,2.25l1.12,2.4l-2.01,1.64l-0.07,2l0,0l0,0l0,0l-0.4,0.94l-4.7,-0.04l-2.51,-3.48l-2.44,0.9l-0.13,2.38l-1.41,-1.68l-2.29,0.31l2.48,4.66l-1.92,2.23l-3.52,0.28l-0.86,-1.39l-4.76,1.53l-2.2,-0.73l1.06,2.51l-3.79,3.95l-2.31,-3.3l-1.7,0.5l-3.46,-1.74l-1.52,1.05l1.02,-3.44l-1.46,-1.27l-3.25,4.26l2.02,5.53l-3.07,1.69l-2.52,4.08l-1.97,1.03l-3.86,-0.55l-1.53,1.3l-1.67,-1.06l-1.49,3.96l-1.71,-0.94l0,0l0,0l0,0l-1.77,-6.94l-9.72,-5.26l-0.24,-1.93l2.66,-2.08l-0.64,-1.72l-0.94,2.52l-3.73,-1.05l-0.06,-3.71l-1.27,-0.5l-4.08,-9.03l-3.28,-0.74l-2.03,2.01l2.77,6.38l-1.77,4.36l-2.93,2.92l-5.69,-4.27l0.33,-2.24l2.54,-1.07l-0.9,-2.1l-1.92,-0.79l-0.83,-7.3l1.55,-0.41l0.52,-2.57l2.02,-0.07l-8.72,-1.6l0.81,-5.42l4.5,1.1l-0.6,-2.36l1.43,-1.16l0,0l0.29,-3.16l1.09,-0.14l-1.7,-2.08l0.22,-2.44l3.88,-3.53l0.11,-4.9l-1.4,-1.87l-3.86,0.36l2.03,-2.93l-1.78,-1.45l1.1,-1.31l-3.98,-4.08l0.04,-2.99l-2.23,-1.54l0.19,-4.4l2.67,-2.06l-5.02,-17.3l3.17,-0.31l0.15,0.9l0,0l0.43,-0.66l0,0l1.28,-2.47l4.01,-2.05l0.25,-3.83l-1.44,-1.45l2.2,-2.27l-1.62,-3.21l1.98,-1.15l3.57,-8.61l-0.11,-2.97l0,0l1.67,-0.23l1.46,-3.25l5.14,0.05l1.76,-3.07l2.1,4l2.63,-1.91l-2.35,-3.73l1.63,-3.01l-1.53,-3.45l-5.06,-1.86l-3.41,-10.44l-4.58,-2.59l2.02,-4.99l3.15,-0.25z" class="dek-svg-cr__land" id="CZ-OL" data-id-land="CZ071"/>
   <path d="m432.52,121.920002l0.14,0.02l0,0l0.11,2.97l-3.57,8.61l-1.98,1.15l1.62,3.21l-2.2,2.27l1.44,1.45l-0.25,3.83l-4.01,2.05l-1.28,2.47l0,0l-0.43,0.66l0,0l-0.15,-0.9l-3.17,0.31l5.02,17.3l-2.67,2.06l-0.19,4.4l2.23,1.54l-0.04,2.99l3.98,4.08l-1.1,1.31l1.78,1.45l-2.03,2.93l3.86,-0.36l1.4,1.87l-0.11,4.9l-3.88,3.53l-0.22,2.44l1.7,2.08l-1.09,0.14l-0.29,3.16l0,0l-2.54,0.36l-6.93,-3.71l-3.12,-0.55l-1.32,1.1l-2.48,-1.72l-1.62,1.53l-4.51,-1.38l-1.35,5.65l-3.18,-0.04l-1.55,-1.41l-3.87,1.83l-0.34,-1.69l-2.28,0.63l-0.98,3.06l-1.35,-1.2l0,0l-3.83,-4.32l-4.15,-1.59l-1.42,0.61l-1.56,-1.31l0.29,-1.54l-7.08,-5.46l-4.12,0.15l-0.69,-1.59l-3.37,0.88l-2.23,-3.69l-1.88,-0.82l0,0l-0.58,0l0,0l-3.08,-0.27l-1.5,-2.93l-2.83,3.22l0,0l0,0.7l0,0l0.16,1.03l-1.63,0.42l0.7,1.38l-3.78,0.78l-6.47,-4.61l1.43,-3.67l-1.27,1.02l-3.86,-2.96l-2.89,0.31l0.64,-3.37l-4.03,0.2l-2.64,-3.38l-1.77,0.4l-0.16,-1.49l-1.93,-0.63l-1.69,1.27l-0.79,-1.38l-4.12,1.16l-1.66,-2.98l-7.01,-4.53l0,0l-0.01,-5.15l2.14,-0.62l1.49,-3.54l-1.87,-2l1.35,-2.83l-6.07,-3.18l0.97,-2.36l-1.41,0.6l-0.03,-1.79l-2.86,0.26l0.27,-1.12l-2.75,-0.28l-2.8,-2.82l0.95,-1.31l2.09,0.1l-1.96,-1.84l2.98,-0.38l-0.92,-3.44l2.2,-0.15l-2.55,-1.09l0.68,-1.23l2.86,0.81l0.3,-0.91l0,0l1.01,1.31l3.2,-1.92l0,0l0,-0.63l0,0l2.97,-0.41l0.05,-2.58l1.38,-0.76l1.31,0.91l1.43,-2.21l1.64,2.37l1.43,0.07l-0.48,-0.88l4.46,0.9l0.21,-1.09l3.68,2.12l1.49,-1.93l1.86,0.65l1.31,-1.13l0.08,-2.6l3.07,-1.94l3.21,2.1l-0.5,2.85l2.76,1.24l1.67,-2.33l2.91,0.05l0.16,-2.15l2.67,-0.28l0.01,-0.95l2.04,1.58l4.62,0.32l0.01,1.64l1.74,0.12l-0.01,4.65l4.81,-0.05l1,3.55l3.25,0.46l2.46,2.99l2.69,0.11l2.55,3.2l3.94,-1.01l0.65,-1.3l0.09,1.8l3.05,-1.18l4.57,1.48l-1.95,-2.94l3.98,-2.28l-1.09,-2.26l3.12,-1.13l1.53,-2.28l2.73,-0.14l4.29,-2.53l1.57,-4.05l7.35,3.81l1.11,-0.64l0,0l4.68,4.39l6.54,2.1l3.69,-5.38l3.37,-1.42l2.66,-6.56l0.93,0.41l2.2,-2.62l1.39,1.26z" class="dek-svg-cr__land" id="CZ-PA" data-id-land="CZ053"/>
   <path d="m571.87,234.080002l0,0l-3.58,-1.28l0.11,-3.7l-5.36,-4.49l-0.84,-3.64l-2.65,-0.26l-1.53,1.33l-4.58,-0.94l-3.35,-3.78l-2.6,1.08l-0.81,-1.57l-11.7,2.34l-2.21,-4.74l-5.23,-0.1l0,0l-1.35,3.78l-5.24,-1.61l-0.31,2.61l-4.68,2.25l1.12,2.4l-2.01,1.64l-0.47,2.94l-4.7,-0.04l-2.51,-3.48l-2.44,0.9l-0.13,2.38l-1.41,-1.68l-2.16,0.25l2.35,4.72l-1.92,2.23l-3.52,0.28l-0.86,-1.39l-4.76,1.53l-2.2,-0.73l1.06,2.51l-3.79,3.95l-2.31,-3.3l-1.7,0.5l-3.46,-1.74l-1.52,1.05l1.02,-3.44l-1.46,-1.27l-3.25,4.26l2.02,5.53l-3.07,1.69l-2.52,4.08l-1.97,1.03l-3.86,-0.55l-1.53,1.3l-1.67,-1.06l-1.49,3.96l-1.71,-0.94l0,0l-2.66,4.08l1.62,1.97l-0.93,2.23l2.64,3.33l-1.83,2.1l3.54,0.24l1.1,-1.37l0.46,1.27l-1.38,5l-3.24,0.68l-0.82,4.09l-2.47,0.11l-0.35,3.47l3.1,0.49l6.31,-2.54l1.58,3.76l-0.9,4.47l2.58,-0.87l0.09,1.06l1.37,-0.41l0.84,2.73l5.36,-0.15l2.24,1.29l-0.58,3.82l2.08,0.51l1.6,-1.09l3.49,4.39l2.98,-1.67l1.51,0.76l1.37,-1.51l0.95,2.06l3.69,0.88l-0.9,3.4l5.65,1.67l4.21,7.89l0,0l5,-0.81l7.14,-8.79l9.08,-0.48l2.62,-11.3l1.67,-1.63l8.5,-0.15l4.13,-2.02l2.6,-3.04l1.59,-4.77l-0.5,-5.64l2.26,-3.74l-0.45,-3.62l2.18,-4.04l-0.73,-4.16l3.5,-3.38l-0.03,-2.14l7.27,-1.37l9.08,-3.83l3.44,-3.72l0.67,-4.38l-0.58,-1.92z" class="dek-svg-cr__land" id="CZ-ZL" data-id-land="CZ072"/>
   <path d="m110.41,135.940002l2.05,-0.56l0.91,2.25l1.92,-2.1l1.49,3.36l3.39,-1.6l0,0l1.88,3.83l-1.51,0.13l-1.32,4.1l3.21,0.63l1.08,-1.92l2.6,-0.14l1.06,1.49l2.49,-1.38l1.92,1.43l-3.05,0.63l1.82,2l2.76,0.47l1.5,2.08l5.05,-0.14l0,0l0.51,0l0,0l1.31,-0.88l2,0.71l2.99,4.57l4.24,-0.12l-0.36,3.51l3.57,-0.18l2.52,2.05l1.87,-0.09l-1.24,2.55l1.47,5.75l-2.37,0.03l-0.89,5.15l1.07,2.75l-1.79,1.48l0.83,2.83l-1.49,2.71l1.69,-0.57l1.58,1.56l-3.42,1.58l-1.79,3.39l-2.22,-1.88l-3.68,2.03l-2.15,2.9l0.77,2.85l1.77,-1.37l2.47,0.95l-3.46,0.88l-0.2,1.46l2.72,2.34l-1.68,0.93l1.54,0.39l-0.71,0.98l4.15,1.15l-1.5,10.47l0.65,-0.87l1.78,0.82l0.16,4.43l0,0l-1.19,2.22l0,0l0,0.5l0,0l-0.33,1.05l1.87,0.3l-0.42,4.44l2.02,2.5l-2.14,1.67l-0.44,3.21l2.86,4.77l-1.92,3.18l0.28,2.32l-4.51,1.95l-0.23,1.66l1.38,0.89l-0.74,1.98l-2.44,-0.2l0.64,2.96l1.97,0.04l-0.32,2.03l-1.8,-0.21l0.4,1.16l-1,-0.3l-0.59,1.93l0,0l0,0.58l0,0l2.45,3.4l-2.47,1.14l-0.65,2.97l0.85,0.33l-3.25,0.55l-2.52,3.21l-3.77,-1.4l1.01,0.71l-0.96,1.97l0.76,2.52l-1.57,0.48l1.64,2.28l0.54,4.51l-1.45,1.54l-1.47,-0.8l-2.51,4.29l-0.68,4.62l1.28,2.47l0,0l-3.89,-0.2l0,3.65l-1.09,0.18l-8.37,-6.25l-0.91,-9.21l-9.41,-8.93l-4.86,0.64l-5.14,-3.19l-0.62,-4.9l-5.45,-4.11l0.25,-2.18l-2.36,-1.34l-0.62,-2.61l-1.82,-0.55l-0.66,-1.81l-1.84,-0.11l-0.43,-5.47l-2.05,-0.25l-3.1,-3.89l-7.5,-2.35l-0.61,2.96l-3.08,-2.09l-6.05,-0.29l-2.16,-6.66l-4.42,-4.14l-4.62,-1.36l-0.05,-2.62l-2.1,-3.3l0.95,-6.46l-0.7,-1.24l-1.34,0.82l-2.87,-1.58l-2.66,-11.35l-2.92,0.21l-0.57,-9.49l-3.1,-0.1l-4.11,-2.29l-3.46,-5.44l-0.16,-2.54l6.4,-3.6l-0.71,-3.38l0.92,-3.49l2.11,-0.34l-0.05,-2.56l1.26,-0.35l3.59,-6.5l0,0l3.93,1.66l2.38,-2.7l2.28,-0.49l3.11,3.49l-0.71,-2.41l3.58,-0.44l-0.84,-1.98l2.42,0.44l1.17,-1.51l1.69,0.18l0,0l-0.03,-0.18l0,0l1.07,0.67l1.35,-1.58l1.96,0.11l3.86,2.2l3.96,-1.45l2.84,1.86l-0.32,-0.87l1.05,0.38l2.74,-2.64l-0.55,-3.19l0,0l0,-1.09l0,0l3.62,-0.68l0.49,-1.61l1.19,0.46l7.14,-6.75l0.94,1.48l4.74,-0.09l1.81,2.07l0.52,-0.96l1.44,2.06l2.85,0.76l-0.06,-7.31l4.4,-0.42l1.55,-3.15l-1.89,-0.35l0.37,-3.09l1.79,-0.04z" class="dek-svg-cr__land" id="CZ-PL" data-id-land="CZ032"/>
   <path d="m221.59,125.950002l0.17,0.32l0,0l1.82,0.57l0,0l0.84,1.07l0,0l-1.46,1.46l4.19,-1.1l0.57,3.38l4.92,1.05l0.69,2.94l3.79,1.31l-0.44,2.85l-5.38,2.15l0.32,2.04l1.48,-0.49l0,0l-0.45,2.27l1.15,1.56l-0.99,1.92l0,0l-1.02,-0.69l-0.48,2.29l-5.22,-3.14l-0.91,0.92l-1.41,-0.83l-1.05,1.35l-1.47,-0.67l0,0l-0.02,0.17l0,0l-0.08,1.44l-2.67,-0.11l-3.31,3.86l-3.48,1.13l-1.99,-0.71l-0.43,3.88l-1.32,-1.4l-4.02,0.5l-1.14,-1.54l1.72,-1.33l-1.5,-0.39l1.46,-2.82l-3.17,-0.68l-0.38,-4.77l-2.43,-0.21l-0.64,-3.28l-1.98,-0.72l0.96,-1.6l3.2,-0.9l-4.11,-3.33l-2.32,-0.14l3.11,-1.78l2.37,0.15l1.94,-2.21l1.07,0.13l-0.45,1.94l4.56,-0.24l-0.65,-2.98l1.08,-1.51l2.54,0.99l3.02,-2.31l3.72,0.59l-0.35,-0.9l0,0l-0.03,-0.73l0,0l4.61,-1.24l0,0l1.41,-0.32l0,0l-0.07,0.62l0,0l0.11,0.22z" class="dek-svg-cr__land" id="CZ-PR" data-id-land="CZ010"/>
   <path d="m217.25,78.580002l1.55,1.84l0.88,-2.44l3.3,1.91l2.74,-2.11l1.12,5.23l1.96,0.2l1.87,-1.98l1.25,1.08l0.8,-0.91l3.21,0.62l0.14,-1.63l2.38,-0.98l0.66,-2.79l5.48,1.25l1.12,-2.99l0.92,0.78l1.64,-1.25l1.84,-3.12l-0.3,-1.97l5.31,-2.4l-0.58,-2.03l1.73,-0.74l-0.68,-1.38l1.49,-0.27l3.92,3.85l0.7,-1.51l2.7,-0.3l3.07,5.61l2.31,-0.85l2.69,2.34l0.55,3.12l3.99,1.36l0,0l-2.8,2.82l2.82,4.03l-1.25,3.34l2.18,1.76l0.19,4.25l-1.84,0.68l0.48,2.23l-2.23,-0.25l-1.28,1.74l2.67,1.96l-0.92,0.9l0.77,1.65l5.23,0.81l-0.64,1.58l3.13,1.33l-0.85,3.32l2.74,1.31l2.55,-1.1l3.72,1.75l4.01,-2.63l2.43,2.24l0.6,4.18l-1.44,1.06l0.31,2.81l1.75,1.4l0.46,3.13l-3.63,4.04l1.62,1.55l-2.32,1.42l3.07,0.06l1.76,1.52l1.25,-0.76l2.73,2.25l-0.3,2.54l0,0l-0.3,0.91l-2.87,-0.82l-0.68,1.24l2.55,1.08l-2.2,0.15l0.91,3.44l-2.97,0.38l1.96,1.84l-2.1,-0.1l-0.95,1.31l2.8,2.82l2.75,0.28l-0.26,1.12l2.86,-0.27l0.03,1.8l1.41,-0.6l-0.97,2.36l6.07,3.18l-1.35,2.84l1.86,2l-1.48,3.54l-2.14,0.62l0.01,5.15l0,0l-2.83,3.33l-1.82,-1.16l-2.28,1.89l-0.47,1.71l2.02,2.24l-1.45,1.63l0,0l-0.52,-0.04l0,0l-3.04,-0.99l-1.33,3.24l-1.82,1.03l-5.63,0.47l-1.88,2.11l-1.21,-0.53l0.37,-1.17l-1.53,0.82l0,0l-0.38,-0.01l0,0l-1.13,0.63l-0.49,3.59l-3.13,2.37l-0.31,3.05l0.7,2.76l4.4,0.54l1.29,2.83l-0.61,2.95l-1.84,1.28l-2.93,-1l-0.52,1.36l-1.18,-0.38l-0.8,3.39l-4.05,-2.99l-1.57,1.61l-4.01,0.71l-2.05,-1.39l-0.93,1.04l-1.7,-1.64l-2.2,0.33l-0.92,1.42l1.53,2.18l-4.18,0.11l0.45,2.99l-1.1,0.07l0,0l0.03,0.74l0,0l-0.03,0.22l0,0l-0.48,0.57l0,0l-0.9,0.26l0,0l-2.34,-1.26l-1.28,-4.66l-1.92,-0.21l-0.94,1.77l-2.89,-3.73l-2.38,-0.4l0,0l-0.71,0l0,0l-1.08,-2.27l-0.44,1.64l-1.8,0.64l0.33,1.39l-1.53,-0.28l-0.7,4.13l1.27,2.63l-4.8,1.43l-2.96,2.68l-0.29,2.17l-1.14,-2.22l-4.68,0.17l0.64,-3.56l-2.61,1.76l-7.5,-1.99l-1.15,1.99l-1.92,-2.46l-1.49,1.01l-1.85,-2.32l0.67,2.99l-2.42,-0.86l-1.85,2.32l-2.32,-0.85l-0.83,0.83l0.24,-1.72l-2.57,-1.47l-0.61,0.71l-2.25,-3.02l-4.3,0.49l-1.56,4.28l-1.22,-0.78l-4.21,1.08l-2.55,-1.19l0.34,1.49l-1.68,-1.15l-0.45,1.03l-2.62,-0.06l0.06,-3.89l-3.07,-0.44l-1.41,1.6l-1.27,-0.32l0.46,1.6l-1.52,2.88l-1.4,-0.76l-0.58,1.78l-2.31,-0.93l-1.6,2.36l-3.67,-0.85l0.68,-0.99l-1.68,0.18l-0.76,-1.63l-2.79,2.01l-1.69,-2.29l-3.63,2.53l-1.54,-0.75l0,0l-0.16,-4.43l-1.78,-0.82l-0.65,0.88l1.5,-10.47l-4.15,-1.16l0.71,-0.97l-1.55,-0.39l1.68,-0.93l-2.72,-2.34l0.21,-1.46l3.45,-0.88l-2.47,-0.95l-1.77,1.37l-0.77,-2.84l2.15,-2.9l3.68,-2.04l2.22,1.88l1.79,-3.39l3.43,-1.58l-1.58,-1.56l-1.69,0.57l1.49,-2.71l-0.83,-2.83l1.79,-1.48l-1.07,-2.75l0.89,-5.15l2.37,-0.03l-1.46,-5.75l1.24,-2.55l-1.87,0.08l-2.52,-2.04l-3.57,0.18l0.36,-3.52l-4.24,0.13l-2.98,-4.57l-2.01,-0.71l-1.3,0.88l0,0l-0.52,0l0,0l-5.05,0.14l-1.5,-2.08l-2.77,-0.48l-1.82,-1.99l3.06,-0.63l-1.93,-1.43l-2.49,1.38l-1.06,-1.49l-2.6,0.14l-1.08,1.92l-3.21,-0.63l1.32,-4.1l1.51,-0.13l-1.88,-3.84l0,0l-0.35,-1.21l1.76,-1.42l3.36,0.35l0.71,-3.66l1.8,0.69l-0.92,-2.11l1.17,-0.84l-0.46,-2.53l1.17,0.08l0,0l0.33,0l0,0l3.79,-3.66l2.08,0.89l3.47,-0.97l0.73,-2.54l1.5,0.03l3.42,-3.33l0.01,1.47l7.18,-0.11l0.3,-1.48l1.59,0.34l3.81,-4.4l2.57,3.19l2.16,-0.34l1.13,-3.79l3.76,-0.39l3.32,-2.64l-0.33,-2.19l3.56,0.51l-0.86,-4.26l2.31,-1.81l12.11,2.25l3.44,-0.41l0.23,-1.64l5.92,2.29l0.52,-0.97l0,0l0.16,0.03l0,0l1.73,-2.67l1.83,0.75l0,0l0.75,-0.47l0,0l1.86,-0.82l3.79,0.96l1.23,-6.3l-1.82,-4.7l1.74,-0.93l3.86,1.92l-1,-1.29l1.42,-1.25l-0.26,-1.87l4.48,0.54l-1.49,-6.73l1.65,-0.41l-0.35,-1.39l1.19,0.53zm-1.69,48.82l0,0l0.34,0.9l-3.72,-0.59l-3.02,2.31l-2.54,-0.98l-1.08,1.5l0.64,2.98l-4.56,0.24l0.45,-1.94l-1.07,-0.13l-1.94,2.21l-2.37,-0.15l-3.11,1.79l2.31,0.14l4.11,3.33l-3.2,0.9l-0.96,1.6l1.98,0.72l0.64,3.29l2.42,0.21l0.38,4.77l3.17,0.67l-1.46,2.82l1.5,0.39l-1.73,1.33l1.14,1.54l4.02,-0.5l1.32,1.4l0.42,-3.88l2,0.71l3.47,-1.14l3.32,-3.86l2.67,0.11l0.08,-1.44l0,0l0.02,-0.17l0,0l1.46,0.67l1.06,-1.35l1.41,0.83l0.9,-0.93l5.23,3.14l0.48,-2.29l1.02,0.69l0,0l0.99,-1.92l-1.18,-1.81l0.48,-2.02l0,0l-1.47,0.49l-0.32,-2.04l5.37,-2.15l0.44,-2.85l-3.79,-1.31l-0.69,-2.94l-4.92,-1.05l-0.58,-3.38l-4.19,1.1l1.46,-1.46l0,0l-0.84,-1.07l0,0l-1.83,-0.56l0,0l-0.28,-0.55l0,0l0.07,-0.62l0,0l-1.41,0.32l0,0l-4.61,1.24l0.1,0.74z" class="dek-svg-cr__land" id="CZ-ST" data-id-land="CZ020" />
   <path d="m203.87,2.440002l2.48,-0.76l2.22,2.78l2.79,0.98l3.26,-2.48l3.45,1.8l0.71,-3.34l-0.18,3.53l2.96,0.77l0.31,1.89l2.69,-0.88l3.28,4.24l-3.15,8.81l1.58,0.73l6.04,-2.59l0.23,3.74l-1.42,1.13l-1.56,5.63l0,0l-1.49,2.47l-3.14,0.45l-1.48,5.73l-2.55,0.2l-4.37,-2.84l-2.87,0.7l1.25,0.77l-0.88,2.87l0.86,0.78l-2.69,2.05l-0.95,3.34l1.16,0.95l-1.32,0.46l-0.22,-0.98l-1.01,1.93l0,0l-0.79,0.29l0,0l-1.38,0.53l0.05,4.14l-2.66,2.19l-0.57,2.55l1.75,0.15l-0.2,4.03l1.82,3.98l2.35,1.7l3.16,8.3l2.74,0.42l1.12,3l0,0l-1.23,-0.55l0.35,1.39l-1.65,0.41l1.49,6.73l-4.47,-0.54l0.26,1.87l-1.42,1.25l1,1.28l-3.86,-1.92l-1.73,0.93l1.82,4.7l-1.23,6.31l-3.79,-0.97l-1.87,0.82l0,0l-0.75,0.47l0,0l-1.82,-0.75l-1.73,2.67l0,0l-0.16,-0.03l0,0l-0.52,0.98l-5.92,-2.29l-0.23,1.64l-3.44,0.41l-12.11,-2.25l-2.3,1.81l0.86,4.27l-3.57,-0.51l0.33,2.19l-3.32,2.63l-3.76,0.4l-1.13,3.79l-2.16,0.34l-2.57,-3.19l-3.81,4.4l-1.59,-0.34l-0.3,1.49l-7.17,0.11l-0.01,-1.47l-3.42,3.33l-1.5,-0.03l-0.73,2.54l-3.48,0.97l-2.08,-0.89l-3.78,3.66l0,0l-0.34,0l0,0l-1.17,-0.08l0.47,2.53l-1.17,0.84l0.92,2.11l-1.8,-0.69l-0.71,3.66l-3.37,-0.35l-1.76,1.42l0.35,1.21l0,0l-3.39,1.6l-1.49,-3.36l-1.92,2.1l-0.91,-2.25l-2.05,0.56l0,0l-2.54,-3.99l-2.56,0.3l-1.44,-1.15l0.62,-1.04l0,0l0.05,-0.11l0,0l4.14,0.64l-1.54,-2.81l1.62,0.04l0.33,-1.55l-1.08,-0.04l-1.26,-5.26l-2.53,-0.34l1.97,-2.71l-3.05,-2.21l1.34,-0.85l-0.2,-3.26l-1.68,-0.38l1.62,-3.2l-0.8,-2.99l0,0l0.22,0l0,0l0.92,-2.43l-2.48,-3.59l-2.34,1.58l-4.48,-1.38l-1.66,1.75l-1.59,-1.67l0.03,-3.31l-1.6,0.26l-1.51,-1.47l-1.52,1.23l-2.4,-1.74l-4.14,0.62l-2.42,-2.04l0,0l-0.59,-1.07l3.49,-0.96l3.66,-4.18l1.01,-8.69l4.85,1.44l4.17,-2.67l0.59,1.67l5.15,0.47l4.7,-12.57l2.82,-0.03l1.12,2.49l2.89,-0.7l0.23,-3.91l4.65,-2.85l-0.42,-3.22l1.68,0.5l2.24,4.28l4.65,1.85l2.66,-3.84l2.58,-1.27l-1.02,-2.03l2.67,-3.36l-1.49,-4.02l2.89,-1.3l4,0.64l5.61,-3.06l3.86,2.05l1.77,-2.35l1.24,0.95l3.33,-1.24l7.12,1.17l0.51,-2.15l3.27,-0.27l-1.02,-3.46l1.2,-3.48l3.36,0.41l1.53,-2.47l3.2,-1.71l3.64,2.24l4.26,-1.14l1.05,-2l12.24,-4.85l0.85,-3.89l3.01,-1.1l3.35,1.58l4.12,-1.24l0.06,-1.3l3.36,0.51l0.92,-5.43l-7.8,-2.66l0.57,-0.75l-1.26,-0.84l2.29,-1.09l-0.3,-1.63l-3.73,1.13l-2.21,-1.58l0.09,-2.93l1.84,-0.88l0.45,-1.83l-1.11,-1.71l3.72,-2.32l1.85,2.25z" class="dek-svg-cr__land" id="CZ-US" data-id-land="CZ042"/>
   <path d="m308.92,169.310002l7.01,4.53l1.66,2.98l4.12,-1.16l0.79,1.38l1.69,-1.27l1.93,0.63l0.16,1.49l1.77,-0.4l2.64,3.38l4.03,-0.2l-0.64,3.37l2.89,-0.31l3.86,2.96l1.27,-1.02l-1.43,3.67l6.47,4.61l3.78,-0.78l-0.7,-1.38l1.63,-0.42l-0.16,-1.03l0,0l0,-0.7l0,0l2.83,-3.22l1.5,2.93l3.08,0.27l0,0l0.58,0l0,0l1.88,0.82l2.23,3.69l3.37,-0.88l0.69,1.59l4.12,-0.15l7.08,5.46l-0.29,1.54l1.56,1.31l1.42,-0.61l4.15,1.59l3.83,4.32l0,0l0.06,2.59l-1.69,1.61l1.33,1.77l1.98,-0.06l0.82,2.19l-2.96,4.25l-2.89,-0.89l3.23,3.25l-2.24,4.54l0.44,3.71l1.32,0.28l-1.15,4.06l1.36,3.59l-1.89,1.77l0,0l-0.79,0l0,0l-6.12,3l-0.81,3.76l-1.92,0.87l-0.11,2.13l2.68,2.54l-3.18,0.69l-1.37,5.55l3.28,1.63l-0.04,2.11l-3.72,1.48l-0.6,1.36l1.17,1.13l-0.3,2.65l2.21,-1.05l-0.64,1.45l1.55,0.68l-0.25,1.83l-1.76,2.16l-2.18,0.34l-1.25,3.67l-6.38,0.57l-0.88,1.12l1.63,1.68l-5.32,0.96l-0.23,1.15l-4.82,-2.31l-0.98,2.3l-2.34,0.61l-2.47,-1.63l-0.74,-2.43l-2.61,0.73l0.2,1.66l-1.48,1.32l-2.93,-1.32l-0.89,4.1l-5.14,-0.24l-2.17,3.56l-3.21,0.59l-2.62,4.65l-2.09,-2.89l-4.05,0.55l-1.15,3.53l-2.18,-0.51l-1.1,-2.32l-2.36,0.4l-0.02,0.98l0,0l-1.14,-1.02l0.58,-1.36l-5.01,-1.4l-0.04,-2.47l-1.4,-0.58l-1.28,1.25l-0.6,-1.13l4.18,-3.85l-0.75,-1.65l2.05,-0.75l-0.72,-2.07l1.26,-0.44l-0.11,-2.13l3.93,0.25l-0.57,-1.3l1.04,-0.38l-1.7,-1.64l0.81,-0.77l-3.26,-1.45l1.5,-0.12l-0.5,-1.74l-2.09,-0.93l-0.76,1.43l-1.68,-0.81l-1.28,1.64l-3.17,-0.03l-2.39,-1.87l-1.55,2.06l-7.9,-6.7l1.25,-3.68l-0.8,-3.24l-6.8,0.19l-1.29,1.36l0.36,-1.74l-5.92,-2.53l-2.26,2.77l-1.49,-0.7l0,0l-0.87,0l0,0l-1.46,-3.59l-2.21,0.91l-2.15,-1.68l2.3,0.56l0.34,-2.83l-3.79,-0.3l-2.94,-3.44l-3.47,3.19l-1.14,-0.24l-6.77,-8.02l2.64,-3.15l-4.08,-2.89l2.37,-6.67l-1.26,-0.47l2.34,-3.97l-0.71,-2.48l1.33,-1.25l-2.96,-4.36l0.51,-1.33l3.29,0.03l-0.92,-3.59l0,0l0.03,-0.22l0,0l-0.03,-0.74l0,0l1.1,-0.06l-0.45,-2.99l4.18,-0.12l-1.53,-2.18l0.92,-1.42l2.2,-0.33l1.7,1.64l0.93,-1.04l2.05,1.39l4.01,-0.71l1.57,-1.62l4.05,3l0.81,-3.4l1.18,0.38l0.52,-1.37l2.93,1.01l1.83,-1.29l0.62,-2.95l-1.3,-2.82l-4.4,-0.55l-0.69,-2.76l0.3,-3.05l3.13,-2.37l0.49,-3.58l1.13,-0.63l0,0l0.38,0.01l0,0l1.53,-0.82l-0.37,1.17l1.21,0.53l1.88,-2.11l5.63,-0.47l1.82,-1.03l1.33,-3.24l3.04,0.99l0,0l0.51,0.04l0,0l1.45,-1.64l-2.02,-2.23l0.47,-1.71l2.28,-1.88l1.82,1.16l2.83,-3.33z" class="dek-svg-cr__land" id="CZ-VY" data-id-land="CZ063"/>
  </g>
</svg>