<svg width="615" height="350" viewBox="0 0 615 350" xmlns="http://www.w3.org/2000/svg" class="dek-svg-cr-outline">
<g>
	<path class="dek-svg-cr__land" d="M312.9,301.3L312.9,301.3l-2.4-0.7l-1.2-3.2l-3-2.1l-1.1,0.9l-2.8-0.9l-5.3-4.2l-6.3,0.2l-1.7-2
		l-1.6,5.7l-3.3-0.9l-3.2,2.3l-2.6,0.1l0.8-2.6l-1.7-2.6l0.5-1.7l-8-0.9l-0.6-2.2l-5.8,0.1l0.1,3.2l-1.9,3.1l1.4,8.9l-0.7,4
		l-1.2,0.2l1.2,4.2l-1.1,0l-1.7,6.1l2.4,2.6l-0.4,1.4l-1.9,1.4l-6.1-1.6l-0.7-1.4l-6.4,0.2l-0.1,6.2l-7.3,6.4l-1.3,5l0.8,6.7
		l-1.8,2.6l-3.3,0.1l-1.5-3.8l-2.2,0.5l-1.2-3l-4.5,3.3l-1.5-1.4l-3.8-0.3l-3-4.2l-2.4,0.7l1.1,2.5l-2.3,5l-3.9-0.6l0.2,2.9
		l-2.8-0.3l-2.1,3.1l-0.9-1.6l-4.8-2.4l-2.7,0.5l-4.6-2.1l-5.4-0.6l-1.4,1.2l-1.8-0.4l0.1-1l-2.7,0.6l0.1-1.6l-2.4-0.9l0.5-2.1
		l-1.6,0.3l-1.7-1.7l1.3-1.9l2.5,0l0.6-2.9l-2.3-0.3l-2.8-4.3l-4.2-0.7l-7.4-7.4l-5.6-0.9l0.2-3.2l-2-4.4l-2.6-0.8l-2.3-7l-2,1.1
		l-4-0.3l-4.4-8l0.6-1.4l-1.9,1.5l-2.5-4.5l-2.7,0.4l0,0"/>
	<path class="dek-svg-cr__land" d="M503.4,309L503.4,309l-4.4,2l-0.7,1.9l-4,1.3l-2.8,0.2l-5.7-4.2l-5.1,4.3l-2.9,0.1l-3.9-4.2
		l-1.4,0.4l-2.5-2.4l-7.5-2.3l-3.7,4.1l-4,2l-2,6.1l-4,2.8l-4,7.4l0.9,2l-3.6,3.6l0.5,2.9l-3.1,4.3l-2-0.9l0.8-2.7l-2.3-10.3l-2-0.8
		l-1.1,1.6l-3-0.7l-3,1.5l-3.9-1.4l-1-2.2l-2-0.8l-3.9,1.3l-1.6-7.2l-6.3-0.1l-4.8-4.4l-1.9,2l-4.5-1l-1.8,0.9l-1.3,4.6l-5,5
		l-1.8,0.2l-1.7-2.6l-0.9,2.1l-5-1.4l-15.7-0.5l-9.9-4.6l-3.9-3.6l0.6-2.5l-1.4-0.6l-0.9,1.1l-1.3-2.7l-2.3,0.6l-0.1-1.1l1.1,0.5
		l-0.7-1.3l-1.1,0.9l-1-2.5l-0.9,1l-2.1-1l0.9-1.1l-1.1-1.4l-5.5,0.4l-2.4,3.2l-3.9-1.3l-1.6,0.7l-6.7-5.6h-3.5l-3.4-1.6l0,0"/>
	<path class="dek-svg-cr__land" d="M42.6,163.1L42.6,163.1l-0.6-2.4l-6.7-3l2.5-4l-0.8-1.3l-2.7-1.9l-2.6,1.5l-0.1-2.5l-2.6-0.4
		l-0.1-1.5l-3-0.2l-2.7-3.1l-0.9,1l-1-2.9l-5.1-0.8l1.3-2.5l-2.4-2.9l-1.5,0.4l-2.9-2.1l-0.5-4.6l1.9-3.7l-2.4-3.6l0.7-0.6l-1.3-0.1
		l-0.8-2l-1.3,0.4l-0.9-3.5l-2.1,0.4L1,114.8l0.6-1.8l3.8-1.9l-1.9-3l0.6-1.3l-2.2-1.6l7.5-0.6l1.4,2.3l0.1,4.7l4.9,0.3l1,2.9
		l-1.9-1.2l-0.5,1.8l4.9,3.5l-1.7,3.4l1.4,2.8l4.3,0.6l-1.2-1.2l1.4-1.5l-1.4-2.1l1.1-1.7l-0.4-3.2l2.6-0.1l-0.6-2.9l1.7-3.2
		l2.5-1.1l0-4.1l2.9-0.1l1-2.7l2.5-1.9l1.9,0.8l-0.2-3L39,94l14.5-2.8l3,2.8l2.6-5l5.4-2.4l1.4,2.6l0.8-4l6.6,4.1v0l5.1,3.7l0,0"/>
	<path class="dek-svg-cr__land" d="M314.4,49.2l1.5-3.3l-3.2-3.2l-0.4-3l0,0l2.4,0.4l0,0l4,0.1l6.8,3l2.3,2.6l6.6-0.8l3.3-1.8
		l3.3,6.6l0.8,4.9l2.1,0.5l6.6-2.9l2.9,1l1,5.6l1.8,2.1l-3.2,2.4l3.3,2.1l1.8-2.1l1.4,0.5l0.9-4.1l3.2-3.4l6.1,2.5l1.5,2.5l2.8-1
		l1.5-5.3l3.9,0.4l0.7,1.1l5.2-0.2l7.1,7.8l2.1,4l-3.6,1.4l0.6,2.9l-2.1,0.9l1.2,2l-3.6,3.8l-1.4,0.8l-2.9-1.6l-1.6,3.8l-3.3,0
		l-0.3,1.8l-3,1.1l0.8,2.3l-1.6-1.2l-1.6,2.7l1.4,3.1l2.4-0.4l1.4,1.3l-0.5,1.2l1.5,0.6l1.5,3.6L382,96l5.1,0.5l0.1,4.3l1.9,2.8
		l1.5,1.3l3.3-0.2l4.8,8l6.3,6.1l0,7.1l2.5,2.4l-0.3,1.5l0,0"/>
	<path class="dek-svg-cr__land" d="M229.6,28.4L229.6,28.4l6.3,2.8l1.7-0.4l1,2.6l2.3-0.9l2.3,1.4l2.7-0.4l3-7.3l1.7,0.5l1.9-1.2
		l2.3,1.5l0.3-1.2l5.3,2l3.9-0.7l-0.7-3.6l1.1-1.9l-1.5-2.5l2.2-2.3l0.7-4l-1.3-2.6l-1.7,1.1l-1.8-1.8l1.5-2.9l3.2-1.9l0,0l1.8,1.7
		l1.5,0l0.5-1.5l4,1.7l0,3.1l3.4-0.3l0-2.8l2.4-1.3l0.2,4.8l1.6,0.9l4.6-2.6l-0.2,1.9l3.2,0.8l0,2.6l1.6,1.1l-2.2,3.1l0.8,6l2.9,4.1
		l4.1,1.5l1.2,2.2l0.5,8.1l2,0.3l3.8-4.6l8.7,4l0,0l0.4,3l3.2,3.2l-1.5,3.3"/>
	<path class="dek-svg-cr__land" d="M483.8,114.1L483.8,114.1l2.2-0.4l0.2-1.8l3.4-0.7l4.6,0.8l4.1-1.3l2.1,1.8l6.6-4.8l0-3.8l2.7,1
		l1.8,2.8v0l1.3,0.3l-2.5,5.9l3.6,3l-0.6,4.2l-3.6,0.1l-1.1,3l-9.4,2.1l-0.9,1.5l4.6,4.5l0.6,2.3l2.4,1.1l0.6-1.8h1.3l3,2.7l3.7,6.9
		l0.6,4l4.6,1.2l-0.1,2.3l3.9,3l4.6-0.8l3-3.8l2.6,0l2-1.9l0.3,1.1l3.4,0.8l-0.1-4.4l-1.8-0.4l-1.3,1.2l-0.5-1.2l0.1-2.1l2.6-1.8
		l5,3.1l-0.3,1.5l1.5,1.4l-0.8,1.2l2,2.8l1.6-0.5l1.9,2.2l1.6-1.1l-0.4-1.2l3.5,0.1l0.7,3.7l5.7,1l0.4,4.1l3.4,2.8l1-2.2l0.9,0.7
		l1.1-1.3l-1.7-2l3.2,1.7l5.5-0.2l0.3,1.4l5.1,3.4l4,0.4l1.3-1l-0.6-2.4l3,0.6l0.6,2.3l-1.2,3.5l3.6,2.6l-2,1.3l-1.2,3.4l5.3,11.3
		l-0.3,3.4l3.9,2.7l3.7-0.2l0.8,3l2.1,1l3.7-1.3l2.5,1.6l-0.4,3.1l1.8,7.5l1.2,0.3l0,4.7l1.9,1.6l-1.6,4.1l-5.1,1.9l-2.5,2.4
		l-6.9-2.5l-5.4,1.6l-1.6-0.3l-0.5-1.7l-2.8,0.3l-2.8,2.3l1,3.4l-4.9,4.3l-1.4,3.8l-3.4,2.4l-3-0.6l0,0"/>
	<path class="dek-svg-cr__land" d="M432.7,121.9L432.7,121.9l1.7-0.2l1.5-3.3l5.1,0.1l1.8-3.1l2.1,4l2.6-1.9l-2.4-3.7l1.6-3
		l-1.5-3.4l-5.1-1.9L436.7,95l-4.6-2.6l2-5l3.1-0.3l0,0l5.2,3.7l2.1-1.3l4.9,2.9l5.2,0.3l0.1,1.6l2.9,1.8l5.5-0.7l-0.3,3l4.3,4.5
		l4,2.1l5.2-1.4l-1,2.1l1.4,0.7l-1.2,3.5l0.9,2.7l1.3-0.1l0.2-2.3l2.3-0.1l2.8,0.8l0.8,3.3l0,0"/>
	<path class="dek-svg-cr__land" d="M407.1,129.7L407.1,129.7l4.7,4.4l6.5,2.1l3.7-5.4l3.4-1.4l2.7-6.6l0.9,0.4l2.2-2.6
		c0,0,1.4,1.3,1.4,1.3l0.1,0l0,0"/>
	<path class="dek-svg-cr__land" d="M503.4,309L503.4,309l5-0.8l7.1-8.8l9.1-0.5l2.6-11.3l1.7-1.6l8.5-0.1l4.1-2l2.6-3l1.6-4.8
		l-0.5-5.6l2.3-3.7l-0.5-3.6l2.2-4l-0.7-4.2l3.5-3.4l0-2.1l7.3-1.4l9.1-3.8l3.4-3.7l0.7-4.4l-0.6-1.9h0l0,0"/>
	<path class="dek-svg-cr__land" d="M133,293.2L133,293.2l-3.9-0.2v3.6l-1.1,0.2l-8.4-6.3l-0.9-9.2l-9.4-8.9l-4.9,0.6l-5.1-3.2
		l-0.6-4.9l-5.4-4.1l0.3-2.2l-2.4-1.3l-0.6-2.6l-1.8-0.6l-0.7-1.8l-1.8-0.1l-0.4-5.5l-2.1-0.3l-3.1-3.9l-7.5-2.4l-0.6,3l-3.1-2.1
		l-6-0.3l-2.2-6.7l-4.4-4.1l-4.6-1.4l0-2.6l-2.1-3.3l1-6.5l-0.7-1.2l-1.3,0.8l-2.9-1.6L43.4,203l-2.9,0.2l-0.6-9.5l-3.1-0.1
		l-4.1-2.3l-3.5-5.4l-0.2-2.5l6.4-3.6l-0.7-3.4l0.9-3.5l2.1-0.3l0-2.6l1.3-0.4l3.6-6.5l0,0"/>
	<path class="dek-svg-cr__land" d="M78.5,92.8L78.5,92.8l-0.6-1.1l3.5-1l3.7-4.2l1-8.7l4.8,1.4l4.2-2.7l0.6,1.7l5.2,0.5l4.7-12.6
		l2.8,0l1.1,2.5l2.9-0.7l0.2-3.9l4.7-2.8l-0.4-3.2l1.7,0.5l2.2,4.3l4.7,1.8l2.7-3.8l2.6-1.3l-1-2l2.7-3.4l-1.5-4l2.9-1.3l4,0.6
		l5.6-3.1l3.9,2l1.8-2.3l1.2,1l3.3-1.2l7.1,1.2l0.5-2.2l3.3-0.3l-1-3.5l1.2-3.5l3.4,0.4l1.5-2.5l3.2-1.7l3.6,2.2l4.3-1.1l1.1-2
		l12.2-4.9l0.9-3.9l3-1.1l3.4,1.6l4.1-1.2l0.1-1.3l3.4,0.5l0.9-5.4l-7.8-2.7l0.6-0.8L201,13l2.3-1.1l-0.3-1.6l-3.7,1.1L197,9.9
		l0.1-2.9l1.8-0.9l0.4-1.8l-1.1-1.7l3.7-2.3l1.9,2.3l0,0l2.5-0.8l2.2,2.8l2.8,1l3.3-2.5l3.4,1.8l0.7-3.3L218.6,5l3,0.8l0.3,1.9
		l2.7-0.9l3.3,4.2l-3.1,8.8l1.6,0.7l6-2.6l0.2,3.7l-1.4,1.1l-1.6,5.6l0,0"/>
</g>
</svg>
